<svg viewBox="0 0 100 120" fill="none" xmlns="http://www.w3.org/2000/svg">
  <!-- Shadow -->
  <ellipse cx="50" cy="112" rx="26" ry="5" fill="#B5D9A5" fill-opacity="0.5"/>

  <!-- Broccoli -->
  <rect x="22" y="34" width="4" height="22" rx="2" fill="#4A8A3A"/>
  <circle cx="24" cy="32" r="7" fill="#3E7A30"/>
  <circle cx="18" cy="36" r="5.5" fill="#4A8A3A"/>
  <circle cx="30" cy="36" r="5.5" fill="#4A8A3A"/>
  <circle cx="24" cy="27" r="4" fill="#4A8A3A"/>

  <!-- Carrot -->
  <path d="M50 46 L54 22 L58 46Z" fill="#F97316"/>
  <rect x="53" y="19" width="3" height="6" rx="1.5" fill="#4A8A3A"/>
  <path d="M52 22 Q56 18 60 22" stroke="#4A8A3A" stroke-width="1.5" stroke-linecap="round" fill="none"/>

  <!-- Tomato -->
  <circle cx="76" cy="36" r="12" fill="#EF4444"/>
  <rect x="74" y="22" width="4" height="7" rx="2" fill="#4A8A3A"/>
  <path d="M71 26 Q76 21 81 26" stroke="#4A8A3A" stroke-width="1.5" stroke-linecap="round" fill="none"/>
  <path d="M68 34 Q76 30 84 34" stroke="#FF6B6B" stroke-width="1" stroke-linecap="round" fill="none"/>

  <!-- Bag body -->
  <rect x="16" y="58" width="68" height="52" rx="8" fill="#E8923A"/>
  <!-- Bag top fold -->
  <rect x="16" y="58" width="68" height="14" rx="6" fill="#D07830"/>
  <!-- Bag crease line -->
  <path d="M16 72 H84" stroke="#BF6820" stroke-width="1.5"/>

  <!-- Bag handle -->
  <path d="M34 58 Q34 44 50 42 Q66 44 66 58" stroke="#BF6820" stroke-width="5" stroke-linecap="round" fill="none"/>
  <path d="M34 58 Q34 44 50 42 Q66 44 66 58" stroke="#D07830" stroke-width="3" stroke-linecap="round" fill="none"/>

  <!-- Eyes white -->
  <circle cx="38" cy="84" r="7" fill="white"/>
  <circle cx="62" cy="84" r="7" fill="white"/>
  <!-- Pupils -->
  <circle cx="39.5" cy="85" r="4" fill="#2D2D2D"/>
  <circle cx="63.5" cy="85" r="4" fill="#2D2D2D"/>
  <!-- Eye shine -->
  <circle cx="41" cy="83" r="1.5" fill="white"/>
  <circle cx="65" cy="83" r="1.5" fill="white"/>

  <!-- Smile -->
  <path d="M36 95 Q50 107 64 95" stroke="#2D2D2D" stroke-width="2.5" stroke-linecap="round" fill="none"/>

  <!-- Rosy cheeks -->
  <ellipse cx="29" cy="93" rx="7" ry="5" fill="#FF7B54" fill-opacity="0.35"/>
  <ellipse cx="71" cy="93" rx="7" ry="5" fill="#FF7B54" fill-opacity="0.35"/>
</svg>
